<?xml version="1.0" encoding="UTF-8"?>
<svg xmlns="http://www.w3.org/2000/svg" xmlns:xlink="http://www.w3.org/1999/xlink" width="4003" height="4003" viewBox="0 0 3003 3003" >

<path fill-rule="nonzero" fill="transparent" fill-opacity="1" d="M 1.042969 0 C 0.765625 0 0.5 0.109375 0.304688 0.308594 C 0.109375 0.5 0 0.769531 0 1.039062 L 0 3001.042969 C 0 3001.617188 0.46875 3002.085938 1.042969 3002.085938 L 3001.039062 3002.085938 C 3001.320312 3002.085938 3001.589844 3001.976562 3001.78125 3001.78125 C 3001.980469 3001.585938 3002.089844 3001.320312 3002.089844 3001.042969 L 3002.089844 1.039062 C 3002.089844 0.46875 3001.621094 0 3001.039062 0 Z M 1.042969 0 "/>
<path fill-rule="nonzero" fill="#ffd700" fill-opacity="1" d="M 1604.730469 442.5 C 1604.730469 446.230469 1604.558594 449.941406 1604.191406 453.671875 C 1603.820312 457.371094 1603.28125 461.058594 1602.539062 464.730469 C 1601.820312 468.371094 1600.921875 471.988281 1599.828125 475.550781 C 1598.75 479.128906 1597.488281 482.640625 1596.070312 486.089844 C 1594.628906 489.519531 1593.050781 492.898438 1591.289062 496.179688 C 1589.519531 499.460938 1587.621094 502.660156 1585.53125 505.769531 C 1583.460938 508.871094 1581.230469 511.859375 1578.878906 514.75 C 1576.511719 517.621094 1574.011719 520.390625 1571.359375 523.019531 C 1568.71875 525.660156 1565.96875 528.160156 1563.070312 530.53125 C 1560.199219 532.890625 1557.191406 535.121094 1554.101562 537.191406 C 1550.988281 539.25 1547.789062 541.179688 1544.5 542.921875 C 1541.210938 544.679688 1537.851562 546.28125 1534.398438 547.699219 C 1530.941406 549.121094 1527.441406 550.390625 1523.878906 551.460938 C 1520.300781 552.558594 1516.679688 553.460938 1513.019531 554.199219 C 1509.371094 554.921875 1505.679688 555.460938 1501.960938 555.828125 C 1498.25 556.191406 1494.539062 556.371094 1490.789062 556.371094 C 1487.058594 556.371094 1483.328125 556.191406 1479.628906 555.828125 C 1475.910156 555.460938 1472.21875 554.921875 1468.570312 554.199219 C 1464.898438 553.460938 1461.289062 552.558594 1457.710938 551.460938 C 1454.148438 550.390625 1450.640625 549.121094 1447.191406 547.699219 C 1443.738281 546.28125 1440.378906 544.679688 1437.089844 542.921875 C 1433.800781 541.179688 1430.601562 539.25 1427.480469 537.191406 C 1424.390625 535.121094 1421.390625 532.890625 1418.519531 530.53125 C 1415.621094 528.160156 1412.871094 525.660156 1410.230469 523.019531 C 1407.578125 520.390625 1405.078125 517.621094 1402.710938 514.75 C 1400.339844 511.859375 1398.128906 508.871094 1396.058594 505.769531 C 1393.96875 502.660156 1392.070312 499.460938 1390.308594 496.179688 C 1388.539062 492.898438 1386.941406 489.519531 1385.519531 486.089844 C 1384.101562 482.640625 1382.839844 479.128906 1381.761719 475.550781 C 1380.660156 471.988281 1379.769531 468.371094 1379.03125 464.730469 C 1378.308594 461.058594 1377.75 457.371094 1377.390625 453.671875 C 1377.039062 449.941406 1376.859375 446.230469 1376.859375 442.5 C 1376.859375 438.78125 1377.039062 435.058594 1377.390625 431.339844 C 1377.75 427.628906 1378.308594 423.949219 1379.03125 420.28125 C 1379.769531 416.628906 1380.660156 413.019531 1381.761719 409.460938 C 1382.839844 405.878906 1384.101562 402.371094 1385.519531 398.921875 C 1386.941406 395.480469 1388.539062 392.109375 1390.308594 388.808594 C 1392.070312 385.539062 1393.96875 382.339844 1396.058594 379.230469 C 1398.128906 376.140625 1400.339844 373.148438 1402.710938 370.261719 C 1405.078125 367.378906 1407.578125 364.609375 1410.230469 361.988281 C 1412.871094 359.339844 1415.621094 356.839844 1418.519531 354.46875 C 1421.390625 352.121094 1424.390625 349.890625 1427.480469 347.820312 C 1430.601562 345.75 1433.800781 343.828125 1437.089844 342.089844 C 1440.378906 340.320312 1443.738281 338.71875 1447.191406 337.300781 C 1450.640625 335.859375 1454.148438 334.621094 1457.710938 333.519531 C 1461.289062 332.441406 1464.898438 331.550781 1468.570312 330.808594 C 1472.21875 330.089844 1475.910156 329.550781 1479.628906 329.179688 C 1483.328125 328.820312 1487.058594 328.640625 1490.789062 328.640625 C 1494.539062 328.640625 1498.25 328.820312 1501.960938 329.179688 C 1505.679688 329.550781 1509.371094 330.089844 1513.019531 330.808594 C 1516.679688 331.550781 1520.300781 332.441406 1523.878906 333.519531 C 1527.441406 334.621094 1530.941406 335.859375 1534.398438 337.300781 C 1537.851562 338.71875 1541.210938 340.320312 1544.5 342.089844 C 1547.789062 343.828125 1550.988281 345.75 1554.101562 347.820312 C 1557.191406 349.890625 1560.199219 352.121094 1563.070312 354.46875 C 1565.96875 356.839844 1568.71875 359.339844 1571.359375 361.988281 C 1574.011719 364.609375 1576.511719 367.378906 1578.878906 370.261719 C 1581.230469 373.148438 1583.460938 376.140625 1585.53125 379.230469 C 1587.621094 382.339844 1589.519531 385.539062 1591.289062 388.808594 C 1593.050781 392.109375 1594.628906 395.480469 1596.070312 398.921875 C 1597.488281 402.371094 1598.75 405.878906 1599.828125 409.460938 C 1600.921875 413.019531 1601.820312 416.628906 1602.539062 420.28125 C 1603.28125 423.949219 1603.820312 427.628906 1604.191406 431.339844 C 1604.558594 435.058594 1604.730469 438.78125 1604.730469 442.5 Z M 1604.730469 442.5 "/>
<path fill-rule="nonzero" fill="#ffd700" fill-opacity="1" d="M 2803.980469 1122.25 C 2803.980469 1125.96875 2803.800781 1129.691406 2803.421875 1133.390625 C 2803.058594 1137.121094 2802.5 1140.808594 2801.789062 1144.449219 C 2801.050781 1148.121094 2800.148438 1151.730469 2799.070312 1155.289062 C 2797.988281 1158.871094 2796.730469 1162.378906 2795.300781 1165.808594 C 2793.878906 1169.269531 2792.269531 1172.628906 2790.511719 1175.921875 C 2788.769531 1179.210938 2786.839844 1182.410156 2784.78125 1185.5 C 2782.691406 1188.609375 2780.480469 1191.601562 2778.109375 1194.46875 C 2775.75 1197.371094 2773.230469 1200.121094 2770.609375 1202.761719 C 2767.96875 1205.410156 2765.199219 1207.898438 2762.320312 1210.261719 C 2759.429688 1212.628906 2756.441406 1214.839844 2753.328125 1216.929688 C 2750.238281 1219 2747.039062 1220.910156 2743.75 1222.671875 C 2740.460938 1224.429688 2737.078125 1226.011719 2733.640625 1227.449219 C 2730.191406 1228.871094 2726.679688 1230.128906 2723.109375 1231.210938 C 2719.53125 1232.289062 2715.910156 1233.199219 2712.269531 1233.921875 C 2708.589844 1234.660156 2704.910156 1235.199219 2701.210938 1235.558594 C 2697.480469 1235.929688 2693.761719 1236.121094 2690.019531 1236.121094 C 2686.300781 1236.121094 2682.578125 1235.929688 2678.859375 1235.558594 C 2675.148438 1235.199219 2671.46875 1234.660156 2667.800781 1233.921875 C 2664.148438 1233.199219 2660.519531 1232.289062 2656.960938 1231.210938 C 2653.378906 1230.128906 2649.871094 1228.871094 2646.421875 1227.449219 C 2642.980469 1226.011719 2639.609375 1224.429688 2636.308594 1222.671875 C 2633.019531 1220.910156 2629.820312 1219 2626.730469 1216.929688 C 2623.621094 1214.839844 2620.640625 1212.628906 2617.738281 1210.261719 C 2614.859375 1207.898438 2612.089844 1205.410156 2609.449219 1202.761719 C 2606.820312 1200.121094 2604.308594 1197.371094 2601.949219 1194.46875 C 2599.578125 1191.601562 2597.351562 1188.609375 2595.289062 1185.5 C 2593.21875 1182.410156 2591.289062 1179.210938 2589.53125 1175.921875 C 2587.789062 1172.628906 2586.191406 1169.269531 2584.769531 1165.808594 C 2583.328125 1162.378906 2582.070312 1158.871094 2580.988281 1155.289062 C 2579.910156 1151.730469 2578.988281 1148.121094 2578.269531 1144.449219 C 2577.539062 1140.808594 2577 1137.121094 2576.640625 1133.390625 C 2576.261719 1129.691406 2576.078125 1125.96875 2576.078125 1122.25 C 2576.078125 1118.511719 2576.261719 1114.789062 2576.640625 1111.078125 C 2577 1107.359375 2577.539062 1103.691406 2578.269531 1100.019531 C 2578.988281 1096.371094 2579.910156 1092.761719 2580.988281 1089.179688 C 2582.070312 1085.621094 2583.328125 1082.109375 2584.769531 1078.660156 C 2586.191406 1075.210938 2587.789062 1071.851562 2589.53125 1068.558594 C 2591.289062 1065.269531 2593.21875 1062.078125 2595.289062 1058.96875 C 2597.351562 1055.878906 2599.578125 1052.878906 2601.949219 1050 C 2604.308594 1047.121094 2606.820312 1044.359375 2609.449219 1041.710938 C 2612.089844 1039.089844 2614.859375 1036.589844 2617.738281 1034.210938 C 2620.640625 1031.839844 2623.621094 1029.628906 2626.730469 1027.558594 C 2629.820312 1025.488281 2633.019531 1023.570312 2636.308594 1021.808594 C 2639.609375 1020.050781 2642.980469 1018.460938 2646.421875 1017.039062 C 2649.871094 1015.609375 2653.378906 1014.339844 2656.960938 1013.269531 C 2660.519531 1012.191406 2664.148438 1011.289062 2667.800781 1010.550781 C 2671.46875 1009.828125 2675.148438 1009.28125 2678.859375 1008.921875 C 2682.578125 1008.558594 2686.300781 1008.359375 2690.019531 1008.359375 C 2693.761719 1008.359375 2697.480469 1008.558594 2701.210938 1008.921875 C 2704.910156 1009.28125 2708.589844 1009.828125 2712.269531 1010.550781 C 2715.910156 1011.289062 2719.53125 1012.191406 2723.109375 1013.269531 C 2726.679688 1014.339844 2730.191406 1015.609375 2733.640625 1017.039062 C 2737.078125 1018.460938 2740.460938 1020.050781 2743.75 1021.808594 C 2747.039062 1023.570312 2750.238281 1025.488281 2753.328125 1027.558594 C 2756.441406 1029.628906 2759.429688 1031.839844 2762.320312 1034.210938 C 2765.199219 1036.589844 2767.96875 1039.089844 2770.609375 1041.710938 C 2773.230469 1044.359375 2775.75 1047.121094 2778.109375 1050 C 2780.480469 1052.878906 2782.691406 1055.878906 2784.78125 1058.96875 C 2786.839844 1062.078125 2788.769531 1065.269531 2790.511719 1068.558594 C 2792.269531 1071.851562 2793.878906 1075.210938 2795.300781 1078.660156 C 2796.730469 1082.109375 2797.988281 1085.621094 2799.070312 1089.179688 C 2800.148438 1092.761719 2801.050781 1096.371094 2801.789062 1100.019531 C 2802.5 1103.691406 2803.058594 1107.359375 2803.421875 1111.078125 C 2803.800781 1114.789062 2803.980469 1118.511719 2803.980469 1122.25 Z M 2803.980469 1122.25 "/>
<path fill-rule="nonzero" fill="#ffd700" fill-opacity="1" d="M 391.089844 1122.25 C 391.089844 1125.96875 390.910156 1129.691406 390.53125 1133.390625 C 390.171875 1137.121094 389.613281 1140.808594 388.894531 1144.449219 C 388.15625 1148.121094 387.257812 1151.730469 386.179688 1155.289062 C 385.101562 1158.871094 383.84375 1162.378906 382.402344 1165.808594 C 380.984375 1169.269531 379.382812 1172.628906 377.621094 1175.921875 C 375.878906 1179.210938 373.953125 1182.410156 371.886719 1185.5 C 369.800781 1188.609375 367.589844 1191.601562 365.214844 1194.46875 C 362.859375 1197.371094 360.34375 1200.121094 357.71875 1202.761719 C 355.074219 1205.410156 352.304688 1207.898438 349.425781 1210.261719 C 346.535156 1212.628906 343.546875 1214.839844 340.4375 1216.929688 C 337.34375 1219 334.144531 1220.910156 330.855469 1222.671875 C 327.5625 1224.429688 324.183594 1226.011719 320.75 1227.449219 C 317.296875 1228.871094 313.792969 1230.128906 310.214844 1231.210938 C 306.636719 1232.289062 303.019531 1233.199219 299.371094 1233.921875 C 295.703125 1234.660156 292.019531 1235.199219 288.3125 1235.558594 C 284.589844 1235.929688 280.871094 1236.121094 277.128906 1236.121094 C 273.40625 1236.121094 269.683594 1235.929688 265.964844 1235.558594 C 262.261719 1235.199219 258.574219 1234.660156 254.90625 1233.921875 C 251.238281 1233.199219 247.625 1232.289062 244.0625 1231.210938 C 240.484375 1230.128906 236.980469 1228.871094 233.527344 1227.449219 C 230.074219 1226.011719 226.710938 1224.429688 223.421875 1222.671875 C 220.132812 1220.910156 216.933594 1219 213.839844 1216.929688 C 210.730469 1214.839844 207.726562 1212.628906 204.847656 1210.261719 C 201.972656 1207.898438 199.203125 1205.410156 196.558594 1202.761719 C 193.917969 1200.121094 191.417969 1197.371094 189.0625 1194.46875 C 186.6875 1191.601562 184.460938 1188.609375 182.390625 1185.5 C 180.324219 1182.410156 178.402344 1179.210938 176.636719 1175.921875 C 174.894531 1172.628906 173.292969 1169.269531 171.855469 1165.808594 C 170.433594 1162.378906 169.175781 1158.871094 168.097656 1155.289062 C 167.019531 1151.730469 166.101562 1148.121094 165.382812 1144.449219 C 164.644531 1140.808594 164.105469 1137.121094 163.746094 1133.390625 C 163.367188 1129.691406 163.1875 1125.96875 163.1875 1122.25 C 163.1875 1118.511719 163.367188 1114.789062 163.746094 1111.078125 C 164.105469 1107.359375 164.644531 1103.691406 165.382812 1100.019531 C 166.101562 1096.371094 167.019531 1092.761719 168.097656 1089.179688 C 169.175781 1085.621094 170.433594 1082.109375 171.855469 1078.660156 C 173.292969 1075.210938 174.894531 1071.851562 176.636719 1068.558594 C 178.402344 1065.269531 180.324219 1062.078125 182.390625 1058.96875 C 184.460938 1055.878906 186.6875 1052.878906 189.0625 1050 C 191.417969 1047.121094 193.917969 1044.359375 196.558594 1041.710938 C 199.203125 1039.089844 201.972656 1036.589844 204.847656 1034.210938 C 207.726562 1031.839844 210.730469 1029.628906 213.839844 1027.558594 C 216.933594 1025.488281 220.132812 1023.570312 223.421875 1021.808594 C 226.710938 1020.050781 230.074219 1018.460938 233.527344 1017.039062 C 236.980469 1015.609375 240.484375 1014.339844 244.0625 1013.269531 C 247.625 1012.191406 251.238281 1011.289062 254.90625 1010.550781 C 258.574219 1009.828125 262.261719 1009.28125 265.964844 1008.921875 C 269.683594 1008.558594 273.40625 1008.359375 277.128906 1008.359375 C 280.871094 1008.359375 284.589844 1008.558594 288.3125 1008.921875 C 292.019531 1009.28125 295.703125 1009.828125 299.371094 1010.550781 C 303.019531 1011.289062 306.636719 1012.191406 310.214844 1013.269531 C 313.792969 1014.339844 317.296875 1015.609375 320.75 1017.039062 C 324.183594 1018.460938 327.5625 1020.050781 330.855469 1021.808594 C 334.144531 1023.570312 337.34375 1025.488281 340.4375 1027.558594 C 343.546875 1029.628906 346.535156 1031.839844 349.425781 1034.210938 C 352.304688 1036.589844 355.074219 1039.089844 357.71875 1041.710938 C 360.34375 1044.359375 362.859375 1047.121094 365.214844 1050 C 367.589844 1052.878906 369.800781 1055.878906 371.886719 1058.96875 C 373.953125 1062.078125 375.878906 1065.269531 377.621094 1068.558594 C 379.382812 1071.851562 380.984375 1075.210938 382.402344 1078.660156 C 383.84375 1082.109375 385.101562 1085.621094 386.179688 1089.179688 C 387.257812 1092.761719 388.15625 1096.371094 388.894531 1100.019531 C 389.613281 1103.691406 390.171875 1107.359375 390.53125 1111.078125 C 390.910156 1114.789062 391.089844 1118.511719 391.089844 1122.25 Z M 391.089844 1122.25 "/>
<path fill-rule="nonzero" fill="#ffd700" fill-opacity="1" d="M 2103 1290.519531 C 2103 1293.449219 2102.859375 1296.371094 2102.570312 1299.300781 C 2102.289062 1302.210938 2101.851562 1305.109375 2101.300781 1307.980469 C 2100.71875 1310.859375 2100 1313.699219 2099.160156 1316.5 C 2098.289062 1319.308594 2097.320312 1322.058594 2096.191406 1324.769531 C 2095.070312 1327.46875 2093.820312 1330.140625 2092.429688 1332.710938 C 2091.050781 1335.289062 2089.539062 1337.808594 2087.921875 1340.261719 C 2086.28125 1342.679688 2084.539062 1345.039062 2082.691406 1347.308594 C 2080.820312 1349.570312 2078.859375 1351.75 2076.769531 1353.808594 C 2074.699219 1355.878906 2072.53125 1357.859375 2070.261719 1359.710938 C 2068 1361.558594 2065.640625 1363.308594 2063.199219 1364.941406 C 2060.769531 1366.578125 2058.25 1368.070312 2055.660156 1369.460938 C 2053.070312 1370.839844 2050.429688 1372.101562 2047.71875 1373.210938 C 2045 1374.328125 2042.25 1375.320312 2039.441406 1376.179688 C 2036.640625 1377.03125 2033.800781 1377.75 2030.921875 1378.300781 C 2028.039062 1378.878906 2025.128906 1379.308594 2022.21875 1379.601562 C 2019.308594 1379.878906 2016.378906 1380.03125 2013.441406 1380.03125 C 2010.511719 1380.03125 2007.578125 1379.878906 2004.648438 1379.601562 C 2001.738281 1379.308594 1998.839844 1378.878906 1995.96875 1378.300781 C 1993.089844 1377.75 1990.25 1377.03125 1987.441406 1376.179688 C 1984.640625 1375.320312 1981.871094 1374.328125 1979.160156 1373.210938 C 1976.460938 1372.101562 1973.800781 1370.839844 1971.210938 1369.460938 C 1968.640625 1368.070312 1966.121094 1366.578125 1963.679688 1364.941406 C 1961.25 1363.308594 1958.890625 1361.558594 1956.628906 1359.710938 C 1954.339844 1357.859375 1952.179688 1355.878906 1950.101562 1353.808594 C 1948.03125 1351.75 1946.070312 1349.570312 1944.199219 1347.308594 C 1942.328125 1345.039062 1940.589844 1342.679688 1938.96875 1340.261719 C 1937.328125 1337.808594 1935.820312 1335.289062 1934.441406 1332.710938 C 1933.070312 1330.140625 1931.808594 1327.46875 1930.679688 1324.769531 C 1929.570312 1322.058594 1928.578125 1319.308594 1927.730469 1316.5 C 1926.871094 1313.699219 1926.171875 1310.859375 1925.589844 1307.980469 C 1925.019531 1305.109375 1924.589844 1302.210938 1924.300781 1299.300781 C 1924.011719 1296.371094 1923.871094 1293.449219 1923.871094 1290.519531 C 1923.871094 1287.589844 1924.011719 1284.660156 1924.300781 1281.75 C 1924.589844 1278.839844 1925.019531 1275.921875 1925.589844 1273.058594 C 1926.171875 1270.191406 1926.871094 1267.351562 1927.730469 1264.539062 C 1928.578125 1261.738281 1929.570312 1258.960938 1930.679688 1256.269531 C 1931.808594 1253.558594 1933.070312 1250.910156 1934.441406 1248.320312 C 1935.820312 1245.730469 1937.328125 1243.21875 1938.96875 1240.789062 C 1940.589844 1238.339844 1942.328125 1236.011719 1944.199219 1233.738281 C 1946.070312 1231.460938 1948.03125 1229.300781 1950.101562 1227.230469 C 1952.179688 1225.148438 1954.339844 1223.179688 1956.628906 1221.320312 C 1958.890625 1219.460938 1961.25 1217.71875 1963.679688 1216.078125 C 1966.121094 1214.460938 1968.640625 1212.960938 1971.210938 1211.570312 C 1973.800781 1210.191406 1976.460938 1208.949219 1979.160156 1207.808594 C 1981.871094 1206.699219 1984.640625 1205.710938 1987.441406 1204.871094 C 1990.25 1204 1993.089844 1203.300781 1995.96875 1202.71875 C 1998.839844 1202.148438 2001.738281 1201.71875 2004.648438 1201.429688 C 2007.578125 1201.140625 2010.511719 1201 2013.441406 1201 C 2016.378906 1201 2019.308594 1201.140625 2022.21875 1201.429688 C 2025.128906 1201.71875 2028.039062 1202.148438 2030.921875 1202.71875 C 2033.800781 1203.300781 2036.640625 1204 2039.441406 1204.871094 C 2042.25 1205.710938 2045 1206.699219 2047.71875 1207.808594 C 2050.429688 1208.949219 2053.070312 1210.191406 2055.660156 1211.570312 C 2058.25 1212.960938 2060.769531 1214.460938 2063.199219 1216.078125 C 2065.640625 1217.71875 2068 1219.460938 2070.261719 1221.320312 C 2072.53125 1223.179688 2074.699219 1225.148438 2076.769531 1227.230469 C 2078.859375 1229.300781 2080.820312 1231.460938 2082.691406 1233.738281 C 2084.539062 1236.011719 2086.28125 1238.339844 2087.921875 1240.789062 C 2089.539062 1243.21875 2091.050781 1245.730469 2092.429688 1248.320312 C 2093.820312 1250.910156 2095.070312 1253.558594 2096.191406 1256.269531 C 2097.320312 1258.960938 2098.289062 1261.738281 2099.160156 1264.539062 C 2100 1267.351562 2100.71875 1270.191406 2101.300781 1273.058594 C 2101.851562 1275.921875 2102.289062 1278.839844 2102.570312 1281.75 C 2102.859375 1284.660156 2103 1287.589844 2103 1290.519531 Z M 2103 1290.519531 "/>
<path fill-rule="nonzero" fill="#ffd700" fill-opacity="1" d="M 1041.519531 1274.539062 C 1041.519531 1277.46875 1041.378906 1280.378906 1041.089844 1283.308594 C 1040.808594 1286.230469 1040.371094 1289.121094 1039.800781 1292 C 1039.21875 1294.871094 1038.5 1297.710938 1037.660156 1300.519531 C 1036.808594 1303.320312 1035.820312 1306.070312 1034.691406 1308.789062 C 1033.570312 1311.5 1032.320312 1314.148438 1030.929688 1316.738281 C 1029.550781 1319.308594 1028.058594 1321.828125 1026.421875 1324.269531 C 1024.78125 1326.699219 1023.039062 1329.058594 1021.191406 1331.320312 C 1019.320312 1333.589844 1017.359375 1335.761719 1015.269531 1337.828125 C 1013.199219 1339.898438 1011.03125 1341.871094 1008.761719 1343.730469 C 1006.5 1345.578125 1004.140625 1347.339844 1001.71875 1348.960938 C 999.269531 1350.601562 996.753906 1352.089844 994.164062 1353.46875 C 991.574219 1354.859375 988.929688 1356.121094 986.214844 1357.230469 C 983.519531 1358.359375 980.75 1359.328125 977.945312 1360.191406 C 975.140625 1361.039062 972.300781 1361.761719 969.421875 1362.320312 C 966.546875 1362.890625 963.648438 1363.320312 960.71875 1363.609375 C 957.808594 1363.898438 954.875 1364.039062 951.945312 1364.039062 C 949.015625 1364.039062 946.085938 1363.898438 943.171875 1363.609375 C 940.238281 1363.320312 937.34375 1362.890625 934.46875 1362.320312 C 931.589844 1361.761719 928.75 1361.039062 925.945312 1360.191406 C 923.140625 1359.328125 920.371094 1358.359375 917.675781 1357.230469 C 914.960938 1356.121094 912.316406 1354.859375 909.726562 1353.46875 C 907.136719 1352.089844 904.621094 1350.601562 902.175781 1348.960938 C 899.75 1347.339844 897.394531 1345.578125 895.128906 1343.730469 C 892.863281 1341.871094 890.6875 1339.898438 888.617188 1337.828125 C 886.535156 1335.761719 884.574219 1333.589844 882.703125 1331.320312 C 880.851562 1329.058594 879.109375 1326.699219 877.472656 1324.269531 C 875.835938 1321.828125 874.34375 1319.308594 872.957031 1316.738281 C 871.574219 1314.148438 870.316406 1311.5 869.199219 1308.789062 C 868.066406 1306.070312 867.078125 1303.320312 866.234375 1300.519531 C 865.390625 1297.710938 864.667969 1294.871094 864.09375 1292 C 863.519531 1289.121094 863.085938 1286.230469 862.816406 1283.308594 C 862.53125 1280.378906 862.386719 1277.46875 862.386719 1274.539062 C 862.386719 1271.609375 862.53125 1268.679688 862.816406 1265.769531 C 863.085938 1262.851562 863.519531 1259.941406 864.09375 1257.078125 C 864.667969 1254.199219 865.390625 1251.359375 866.234375 1248.558594 C 867.078125 1245.75 868.066406 1242.980469 869.199219 1240.289062 C 870.316406 1237.570312 871.574219 1234.929688 872.957031 1232.339844 C 874.34375 1229.75 875.835938 1227.25 877.472656 1224.808594 C 879.109375 1222.359375 880.851562 1220.019531 882.703125 1217.761719 C 884.574219 1215.488281 886.535156 1213.320312 888.617188 1211.25 C 890.6875 1209.160156 892.863281 1207.199219 895.128906 1205.328125 C 897.394531 1203.480469 899.75 1201.738281 902.175781 1200.101562 C 904.621094 1198.480469 907.136719 1196.96875 909.726562 1195.589844 C 912.316406 1194.199219 914.960938 1192.960938 917.675781 1191.828125 C 920.371094 1190.710938 923.140625 1189.730469 925.945312 1188.878906 C 928.75 1188.019531 931.589844 1187.320312 934.46875 1186.738281 C 937.34375 1186.171875 940.238281 1185.730469 943.171875 1185.449219 C 946.085938 1185.160156 949.015625 1185.019531 951.945312 1185.019531 C 954.875 1185.019531 957.808594 1185.160156 960.71875 1185.449219 C 963.648438 1185.730469 966.546875 1186.171875 969.421875 1186.738281 C 972.300781 1187.320312 975.140625 1188.019531 977.945312 1188.878906 C 980.75 1189.730469 983.519531 1190.710938 986.214844 1191.828125 C 988.929688 1192.960938 991.574219 1194.199219 994.164062 1195.589844 C 996.753906 1196.96875 999.269531 1198.480469 1001.71875 1200.101562 C 1004.140625 1201.738281 1006.5 1203.480469 1008.761719 1205.328125 C 1011.03125 1207.199219 1013.199219 1209.160156 1015.269531 1211.25 C 1017.359375 1213.320312 1019.320312 1215.488281 1021.191406 1217.761719 C 1023.039062 1220.019531 1024.78125 1222.359375 1026.421875 1224.808594 C 1028.058594 1227.25 1029.550781 1229.75 1030.929688 1232.339844 C 1032.320312 1234.929688 1033.570312 1237.570312 1034.691406 1240.289062 C 1035.820312 1242.980469 1036.808594 1245.75 1037.660156 1248.558594 C 1038.5 1251.359375 1039.21875 1254.199219 1039.800781 1257.078125 C 1040.371094 1259.941406 1040.808594 1262.851562 1041.089844 1265.769531 C 1041.378906 1268.679688 1041.519531 1271.609375 1041.519531 1274.539062 Z M 1041.519531 1274.539062 "/>
<path fill-rule="nonzero" fill="#ffd700" fill-opacity="1" d="M 2634.929688 1312.609375 L 2616.410156 1337.449219 L 2237.730469 1845.769531 C 2191.070312 1908.390625 2125.910156 1952.050781 2053.699219 1972.621094 C 2031.300781 1869.140625 2022.660156 1753.261719 2022.660156 1753.261719 C 2011.5 1603.539062 2013.441406 1432.640625 2013.441406 1432.640625 C 2012.351562 1417.910156 1993.550781 1414.070312 1989.351562 1427.960938 C 1941.128906 1587.5 1885.140625 1731.789062 1885.140625 1731.789062 C 1843.039062 1837.78125 1786.140625 1939.628906 1786.140625 1939.628906 C 1721.429688 1896.660156 1685.820312 1825.699219 1663.261719 1748.160156 C 1608.640625 1560.410156 1572.789062 1387.898438 1572.789062 1387.898438 C 1526.550781 1076.910156 1512.75 792.039062 1512.75 792.039062 L 1513.339844 788.460938 L 1484.75 614.25 C 1454.730469 1070.371094 1401.871094 1406.179688 1401.871094 1406.179688 C 1376.421875 1567.820312 1306.25 1748.160156 1306.25 1748.160156 C 1293.679688 1827.929688 1248.078125 1896.660156 1183.371094 1939.628906 C 1131.539062 1841.320312 1086.730469 1728.488281 1086.730469 1728.488281 C 1031.109375 1588.449219 980.15625 1427.960938 980.15625 1427.960938 C 974.796875 1414.480469 956.132812 1417.871094 956.0625 1432.640625 C 955.234375 1604.058594 944.921875 1756.160156 944.921875 1756.160156 C 936.507812 1869.039062 915.679688 1974.46875 915.679688 1974.46875 C 844.171875 1953.710938 779.695312 1910.230469 733.414062 1848.109375 L 354.75 1339.789062 L 336.230469 1314.941406 C 325.605469 1300.660156 301.410156 1312.339844 307.929688 1328.820312 C 459.164062 1710.988281 540.382812 1992.710938 540.382812 1992.710938 C 584.035156 2147.703125 577.148438 2284.6875 577.148438 2284.6875 L 603.5625 2378.472656 L 604.476562 2381.800781 C 605.214844 2384.460938 606.113281 2387.046875 607.085938 2389.585938 C 607.371094 2390.339844 607.722656 2391.042969 608.039062 2391.796875 C 608.765625 2393.542969 609.527344 2395.285156 610.359375 2396.957031 C 610.785156 2397.820312 611.253906 2398.644531 611.707031 2399.472656 C 612.53125 2400.984375 613.359375 2402.457031 614.257812 2403.914062 C 614.777344 2404.757812 615.328125 2405.589844 615.894531 2406.433594 C 616.804688 2407.785156 617.75 2409.105469 618.734375 2410.402344 C 619.351562 2411.210938 619.96875 2412.03125 620.605469 2412.8125 C 621.621094 2414.0625 622.707031 2415.261719 623.789062 2416.445312 C 624.46875 2417.1875 625.117188 2417.941406 625.820312 2418.660156 C 626.96875 2419.828125 628.179688 2420.9375 629.398438 2422.054688 C 630.082031 2422.683594 630.769531 2423.332031 631.484375 2423.941406 C 632.890625 2425.144531 634.328125 2426.238281 635.800781 2427.34375 C 636.394531 2427.789062 636.949219 2428.257812 637.558594 2428.691406 C 639.628906 2430.164062 641.769531 2431.53125 643.960938 2432.808594 C 644.574219 2433.164062 645.242188 2433.472656 645.867188 2433.816406 C 647.46875 2434.691406 649.066406 2435.566406 650.722656 2436.351562 C 651.691406 2436.808594 652.703125 2437.191406 653.691406 2437.609375 C 655.039062 2438.179688 656.386719 2438.757812 657.769531 2439.261719 C 658.90625 2439.675781 660.03125 2440.03125 661.167969 2440.394531 C 662.457031 2440.808594 663.757812 2441.203125 665.070312 2441.546875 C 666.292969 2441.867188 667.515625 2442.175781 668.757812 2442.445312 C 669.996094 2442.714844 671.273438 2442.960938 672.53125 2443.183594 C 673.847656 2443.414062 675.15625 2443.636719 676.472656 2443.796875 C 677.675781 2443.941406 678.898438 2444.054688 680.121094 2444.152344 C 681.523438 2444.269531 682.925781 2444.382812 684.347656 2444.425781 C 685.425781 2444.453125 686.519531 2442.804688 687.617188 2442.804688 C 689.183594 2442.804688 690.730469 2441.097656 692.3125 2441.097656 C 692.382812 2441.097656 692.453125 2441.097656 692.542969 2441.097656 C 693.425781 2441.097656 694.304688 2442.507812 695.1875 2442.425781 C 696.824219 2442.277344 698.441406 2442.976562 700.0625 2442.734375 C 702.773438 2442.328125 705.472656 2442.210938 708.207031 2441.527344 C 863.714844 2402.6875 1215.429688 2442.085938 1486.929688 2442.085938 C 1758.429688 2442.085938 2105.75 2402.996094 2261.289062 2441.835938 C 2264.019531 2442.515625 2266.71875 2443.082031 2269.410156 2443.488281 C 2271.050781 2443.734375 2272.660156 2442.269531 2274.300781 2442.410156 C 2275.179688 2442.484375 2276.058594 2441.078125 2276.949219 2441.078125 C 2277.039062 2441.078125 2277.109375 2441.078125 2277.179688 2441.078125 C 2278.761719 2441.078125 2280.308594 2442.804688 2281.871094 2442.804688 C 2282.96875 2442.804688 2284.070312 2443.652344 2285.160156 2443.613281 C 2286.578125 2443.5625 2287.96875 2443.859375 2289.390625 2443.742188 C 2290.589844 2443.640625 2291.808594 2443.726562 2293.019531 2443.578125 C 2294.328125 2443.417969 2295.640625 2443.304688 2296.960938 2443.078125 C 2298.21875 2442.855469 2299.488281 2442.671875 2300.730469 2442.394531 C 2301.96875 2442.113281 2303.191406 2441.84375 2304.421875 2441.511719 C 2305.730469 2441.15625 2307.019531 2440.78125 2308.320312 2440.359375 C 2309.449219 2439.988281 2310.589844 2439.65625 2311.699219 2439.246094 C 2313.078125 2438.738281 2314.449219 2438.164062 2315.800781 2437.589844 C 2316.789062 2437.171875 2317.769531 2436.792969 2318.75 2436.332031 C 2320.398438 2435.554688 2322.019531 2434.691406 2323.621094 2433.816406 C 2324.25 2433.472656 2324.898438 2433.171875 2325.53125 2432.808594 C 2327.71875 2431.535156 2329.851562 2430.15625 2331.929688 2428.691406 C 2332.53125 2428.269531 2333.089844 2427.773438 2333.671875 2427.34375 C 2335.140625 2426.242188 2336.601562 2425.132812 2338 2423.941406 C 2338.71875 2423.332031 2339.390625 2422.667969 2340.089844 2422.039062 C 2341.308594 2420.9375 2342.519531 2419.8125 2343.671875 2418.640625 C 2344.371094 2417.921875 2345.03125 2417.179688 2345.699219 2416.445312 C 2346.789062 2415.253906 2347.851562 2414.046875 2348.859375 2412.796875 C 2349.5 2412.015625 2350.140625 2411.214844 2350.75 2410.402344 C 2351.730469 2409.109375 2352.679688 2407.777344 2353.589844 2406.414062 C 2354.148438 2405.585938 2354.699219 2404.753906 2355.230469 2403.894531 C 2356.121094 2402.453125 2356.960938 2400.964844 2357.789062 2399.453125 C 2358.230469 2398.628906 2358.710938 2397.808594 2359.128906 2396.957031 C 2359.96875 2395.269531 2360.71875 2393.539062 2361.449219 2391.777344 C 2361.761719 2391.042969 2362.109375 2390.320312 2362.398438 2389.5625 C 2363.390625 2387.027344 2364.269531 2384.441406 2365.011719 2381.777344 L 2365.929688 2378.472656 L 2392.339844 2284.667969 C 2395.011719 2134.738281 2438.878906 1978.980469 2438.878906 1978.980469 C 2516.96875 1701.730469 2657.101562 1344.640625 2657.101562 1344.640625 L 2657.148438 1344.441406 L 2658.730469 1342.289062 L 2663.199219 1326.460938 C 2668.019531 1309.398438 2645.558594 1298.328125 2634.929688 1312.609375 Z M 2634.929688 1312.609375 "/>
<path fill-rule="nonzero" fill="#ffd700" fill-opacity="1" d="M 664.453125 2490.785156 L 2312.121094 2490.785156 L 2351.96875 2530.632812 L 2351.96875 2635.972656 L 2312.121094 2675.816406 L 664.453125 2675.820312 L 624.605469 2635.972656 L 624.605469 2530.628906 L 664.453125 2490.785156 M 664.453125 2570.476562 L 704.296875 2530.628906 L 704.296875 2635.972656 L 664.453125 2596.128906 L 2312.121094 2596.125 L 2272.269531 2635.972656 L 2272.269531 2530.632812 L 2312.121094 2570.476562 Z M 664.453125 2570.476562 "/>
<path fill-rule="nonzero" fill="#ffd700" fill-opacity="1" d="M 704.296875 2570.335938 C 704.261719 2570.335938 704.222656 2570.347656 704.199219 2570.375 C 704.171875 2570.402344 704.15625 2570.4375 704.15625 2570.476562 L 704.15625 2596.128906 C 704.15625 2596.164062 704.171875 2596.203125 704.199219 2596.226562 C 704.222656 2596.253906 704.261719 2596.269531 704.296875 2596.269531 L 2272.269531 2596.269531 C 2272.351562 2596.269531 2272.410156 2596.207031 2272.410156 2596.128906 L 2272.410156 2570.476562 C 2272.410156 2570.398438 2272.351562 2570.335938 2272.269531 2570.335938 Z M 704.296875 2570.335938 "/>
</svg>
